<?xml version="1.0" encoding="UTF-8" standalone="no"?>
<!-- Created with Inkscape (http://www.inkscape.org/) -->
<svg
   xmlns:dc="http://purl.org/dc/elements/1.1/"
   xmlns:cc="http://creativecommons.org/ns#"
   xmlns:rdf="http://www.w3.org/1999/02/22-rdf-syntax-ns#"
   xmlns:svg="http://www.w3.org/2000/svg"
   xmlns="http://www.w3.org/2000/svg"
   xmlns:xlink="http://www.w3.org/1999/xlink"
   xmlns:sodipodi="http://sodipodi.sourceforge.net/DTD/sodipodi-0.dtd"
   xmlns:inkscape="http://www.inkscape.org/namespaces/inkscape"
   width="1488.189"
   height="1052.3622"
   id="svg2"
   sodipodi:version="0.32"
   inkscape:version="0.46"
   sodipodi:docname="logo_A3_landscape.svg"
   inkscape:output_extension="org.inkscape.output.svg.inkscape"
   version="1.0">
  <defs
     id="defs4">
    <linearGradient
       inkscape:collect="always"
       id="linearGradient3688">
      <stop
         style="stop-color:#1752e7;stop-opacity:1;"
         offset="0"
         id="stop3690" />
      <stop
         style="stop-color:#1752e7;stop-opacity:0;"
         offset="1"
         id="stop3692" />
    </linearGradient>
    <linearGradient
       id="linearGradient3384">
      <stop
         style="stop-color:#000000;stop-opacity:1;"
         offset="0"
         id="stop3386" />
      <stop
         style="stop-color:#000000;stop-opacity:0;"
         offset="1"
         id="stop3388" />
    </linearGradient>
    <inkscape:perspective
       sodipodi:type="inkscape:persp3d"
       inkscape:vp_x="0 : 526.18109 : 1"
       inkscape:vp_y="0 : 1000 : 0"
       inkscape:vp_z="744.09448 : 526.18109 : 1"
       inkscape:persp3d-origin="372.04724 : 350.78739 : 1"
       id="perspective10" />
    <inkscape:perspective
       id="perspective2474"
       inkscape:persp3d-origin="372.04724 : 350.78739 : 1"
       inkscape:vp_z="744.09448 : 526.18109 : 1"
       inkscape:vp_y="0 : 1000 : 0"
       inkscape:vp_x="0 : 526.18109 : 1"
       sodipodi:type="inkscape:persp3d" />
    <linearGradient
       inkscape:collect="always"
       xlink:href="#linearGradient3384"
       id="linearGradient3394"
       x1="524.90399"
       y1="711.4967"
       x2="601.56543"
       y2="711.4967"
       gradientUnits="userSpaceOnUse"
       gradientTransform="translate(-186,-226)" />
    <filter
       inkscape:collect="always"
       id="filter3672"
       x="-0.10316058"
       width="1.2063212"
       y="-0.072333291"
       height="1.1446666">
      <feGaussianBlur
         inkscape:collect="always"
         stdDeviation="3.2951822"
         id="feGaussianBlur3674" />
    </filter>
    <linearGradient
       inkscape:collect="always"
       xlink:href="#linearGradient3688"
       id="linearGradient3694"
       x1="523.90399"
       y1="879.4967"
       x2="600.56543"
       y2="879.4967"
       gradientUnits="userSpaceOnUse"
       gradientTransform="translate(-182,-210)" />
    <filter
       inkscape:collect="always"
       id="filter3860">
      <feGaussianBlur
         inkscape:collect="always"
         stdDeviation="2.3798538"
         id="feGaussianBlur3862" />
    </filter>
  </defs>
  <sodipodi:namedview
     id="base"
     pagecolor="#ffffff"
     bordercolor="#666666"
     borderopacity="1.0"
     gridtolerance="10000"
     guidetolerance="10"
     objecttolerance="10"
     inkscape:pageopacity="0.0"
     inkscape:pageshadow="2"
     inkscape:zoom="0.52748678"
     inkscape:cx="526.18109"
     inkscape:cy="744.09448"
     inkscape:document-units="px"
     inkscape:current-layer="layer1"
     showgrid="false"
     showguides="true"
     inkscape:guide-bbox="true"
     inkscape:snap-global="false"
     inkscape:window-width="1610"
     inkscape:window-height="995"
     inkscape:window-x="0"
     inkscape:window-y="0" />
  <metadata
     id="metadata7">
    <rdf:RDF>
      <cc:Work
         rdf:about="">
        <dc:format>image/svg+xml</dc:format>
        <dc:type
           rdf:resource="http://purl.org/dc/dcmitype/StillImage" />
      </cc:Work>
    </rdf:RDF>
  </metadata>
  <g
     inkscape:label="Layer 1"
     inkscape:groupmode="layer"
     id="layer1">
    <path
       id="path3676"
       d="M 389.73731,614.83005 L 371.15919,625.50713 L 341.90399,706.22585 L 388.45606,724.16335 L 418.56542,642.804 L 411.73209,623.15817 L 389.73731,614.83005 z"
       style="opacity:1;fill:url(#linearGradient3694);fill-opacity:1;fill-rule:evenodd;stroke:none;stroke-width:1px;stroke-linecap:butt;stroke-linejoin:miter;stroke-opacity:1;filter:url(#filter3860)"
       transform="matrix(4.2908057,0,0,4.2908057,-739.93539,-2311.1988)" />
    <path
       style="font-size:40px;font-style:normal;font-weight:normal;fill:#228421;fill-opacity:1;stroke:none;stroke-width:1px;stroke-linecap:butt;stroke-linejoin:miter;stroke-opacity:1;font-family:Bitstream Vera Sans"
       d="M 148.86894,427.75098 L 165.04674,346.86187 L 140.70848,346.86187 L 142.28329,339.27404 C 155.0728,339.27417 165.66711,333.30893 174.06623,321.37825 C 182.46526,309.44784 188.04876,296.51514 190.81676,282.58015 L 199.26356,282.58015 L 188.52607,336.55389 L 229.90119,336.55389 L 227.75369,346.86187 L 186.37857,346.86187 L 170.34395,427.17828 C 168.72135,435.29112 168.62583,442.40172 170.05763,448.51011 C 171.58464,454.61854 175.87965,457.67278 182.94258,457.67278 C 189.62362,457.67278 195.06389,454.47536 199.26356,448.08055 C 203.55848,441.59041 206.83914,437.82154 207.12534,426.94688 L 198.13559,425.6157 L 198.15224,420.46219 L 215.98539,420.62124 L 212.40625,438.51708 C 211.16531,442.44935 210.88855,443.29893 209.2852,445.93305 C 205.7274,451.77833 201.55416,456.71829 196.40026,460.53608 C 191.24614,464.35387 185.5195,466.26271 179.22026,466.26271 C 167.48057,466.26271 158.89055,462.77901 153.45028,455.81156 C 148.10536,448.74872 146.5783,439.39519 148.86894,427.75098 M 232.36369,434.19341 C 234.74972,422.54932 241.23995,413.10028 251.83434,405.84645 C 262.42855,398.49733 274.45452,393.34339 287.91225,390.3845 C 301.36984,387.33034 313.873,385.80324 325.42187,385.80316 L 327.8557,373.77715 C 328.90544,368.14606 328.71459,362.70571 327.28301,357.45616 C 325.94672,352.11141 323.27423,347.76868 319.26567,344.42808 C 315.25699,340.99221 310.43696,339.27417 304.80592,339.27404 C 291.82538,339.27417 281.37421,342.18527 273.4524,348.00721 C 277.17472,348.00739 279.94255,349.43901 281.7561,352.30222 C 283.66486,355.07022 284.23755,358.31527 283.47405,362.0375 C 282.7105,365.95084 280.65842,369.29141 277.31794,372.05919 C 273.97729,374.8272 270.39816,376.2111 266.58042,376.21106 C 262.66716,376.2111 259.61297,374.8272 257.41774,372.05919 C 255.22253,369.29141 254.50665,365.95084 255.27033,362.0375 C 257.37004,351.72966 263.5739,344.09408 273.88195,339.13086 C 284.28531,334.07252 295.11818,331.54318 306.38069,331.54309 C 314.30251,331.54318 321.89028,333.26121 329.14419,336.69707 C 336.49331,340.03777 342.0768,344.85767 345.89467,351.15688 C 349.80771,357.45634 350.90535,364.8055 349.18753,373.20454 L 336.01617,439.20429 C 335.25253,443.02204 335.34796,446.55346 336.30249,449.7986 C 337.35233,452.94826 339.59517,454.52307 343.03133,454.52307 C 346.2763,454.52307 348.9965,452.90055 351.19181,449.65545 C 353.3869,446.41032 354.86632,442.92661 355.63,439.20429 L 359.35227,420.44944 L 367.94234,420.44944 L 364.22002,439.20429 C 363.36082,443.59474 361.3565,447.79423 358.20697,451.80296 C 355.15264,455.71613 351.47804,458.8658 347.18321,461.25191 C 342.88802,463.54256 338.49763,464.6879 334.01185,464.6879 C 328.28508,464.6879 323.7515,462.49268 320.41102,458.10225 C 317.1658,453.61634 315.92503,448.31925 316.6887,442.21073 C 311.63001,449.55998 305.09216,455.4298 297.07487,459.82028 C 289.15293,464.11521 281.18332,466.26271 273.16608,466.26271 C 265.7214,466.26271 258.61081,465.16508 251.83434,462.96986 C 245.15312,460.77464 239.85604,457.33874 235.94282,452.66189 C 232.02956,447.8897 230.83651,441.73355 232.36369,434.19341 M 256.12926,434.19341 C 254.79306,441.06547 256.17698,446.83978 260.28113,451.51655 C 264.3852,456.19339 269.87323,458.5318 276.74525,458.53171 C 283.04454,458.5318 289.05751,456.9569 294.78423,453.80724 C 300.60625,450.65762 305.56934,446.3626 309.67354,440.92225 C 313.873,435.48198 316.59319,429.75534 317.83401,423.74229 L 323.84701,393.24779 C 314.97058,393.24788 305.56934,394.72731 295.64325,397.68594 C 285.81236,400.54941 277.22243,405.08299 269.87323,411.28677 C 262.52398,417.49072 257.94264,425.12629 256.12926,434.19341 M 365.07895,485.8765 C 366.51066,478.9091 370.23299,472.80066 376.24595,467.5512 C 382.35438,462.39726 389.13094,458.72266 396.57561,456.52744 C 393.23504,453.56862 390.99212,449.8463 389.84677,445.36044 C 388.70147,440.87453 388.65371,436.10234 389.70363,431.04374 C 391.51701,421.88115 396.05063,413.7684 403.30445,406.70548 C 396.05063,397.92464 393.56909,387.85532 395.85973,376.49734 C 397.1005,370.38899 399.53433,364.66236 403.16131,359.31739 C 406.88354,353.97263 411.46484,349.34358 416.90528,345.43024 C 422.34554,341.51711 428.11994,338.5583 434.22842,336.55389 C 440.43219,334.45427 446.54058,333.40435 452.55372,333.40423 C 464.19785,333.40435 473.98084,336.79263 481.90279,343.56906 C 486.77036,339.27417 492.163,335.98133 498.08067,333.69055 C 504.0935,331.30456 510.05875,330.11151 515.97646,330.11138 C 520.17587,330.11151 523.27778,331.6386 525.28227,334.69271 C 527.3819,337.65165 528.00225,341.23083 527.14345,345.43024 C 526.66606,347.8164 525.32982,349.91619 523.13477,351.72953 C 521.03481,353.54308 518.79187,354.44981 516.40597,354.44973 C 513.92421,354.44981 511.91993,353.54308 510.39292,351.72953 C 508.96116,349.91619 508.48394,347.8164 508.96129,345.43024 C 509.72471,341.80344 511.44271,339.27417 514.11532,337.84238 C 503.99808,337.84255 494.59683,341.32625 485.91151,348.29354 C 488.77472,351.82512 490.73129,356.16785 491.78134,361.32171 C 492.92651,366.38031 493.02194,371.43891 492.06762,376.49734 C 490.34954,384.80108 486.53179,392.29347 480.6143,398.97443 C 474.79214,405.56021 467.72926,410.71416 459.4257,414.43648 C 451.21735,418.06341 443.15231,419.87683 435.23058,419.87683 C 424.54068,419.87683 415.33038,416.96577 407.59946,411.14363 C 404.06796,414.96145 401.82503,419.25646 400.87062,424.02857 C 399.91609,429.18261 400.72739,433.71622 403.30445,437.62944 C 405.88133,441.44723 409.74689,443.35607 414.90091,443.35607 L 438.95289,443.35607 C 450.59702,443.35607 460.905,444.40595 469.87686,446.50574 C 478.8485,448.60554 485.86363,452.80512 490.92231,459.10441 C 495.98074,465.40369 497.36466,474.32775 495.07415,485.8765 C 493.35607,494.46648 488.29746,501.57711 479.89851,507.20833 C 471.4993,512.93493 462.00263,517.03908 451.40838,519.52067 C 440.90945,522.0976 431.36495,523.38608 422.7751,523.38617 C 414.08956,523.38608 404.92698,522.0976 395.28713,519.52067 C 385.64719,517.03908 377.77304,512.93493 371.66461,507.20833 C 365.55622,501.57711 363.361,494.46648 365.07895,485.8765 M 381.54316,485.8765 C 380.20687,492.46221 381.78173,497.95019 386.26763,502.34071 C 390.75346,506.82653 396.52781,510.11934 403.59077,512.21913 C 410.74909,514.41439 417.66879,515.51198 424.34991,515.51198 C 430.93548,515.51198 438.18926,514.41439 446.1112,512.21913 C 454.12845,510.11934 461.19133,506.82653 467.29988,502.34071 C 473.50366,497.95019 477.27369,492.46221 478.61002,485.8765 C 480.61426,475.66395 477.22598,469.03063 468.44519,465.97639 C 459.75966,463.01758 448.7358,461.53824 435.37372,461.53824 L 411.32178,461.53824 C 406.83583,461.53824 402.49315,462.58811 398.29356,464.6879 C 394.09398,466.88312 390.46713,469.8896 387.41294,473.70739 C 384.3587,477.62061 382.40209,481.67692 381.54316,485.8765 M 436.80539,412.00265 C 453.41261,412.00273 464.10234,400.16758 468.87469,376.49734 C 470.87889,366.28488 470.78346,357.8858 468.58837,351.30006 C 466.39299,344.6191 460.52316,341.27854 450.97882,341.27836 C 441.43435,341.27854 434.22833,344.6191 429.36076,351.30006 C 424.49296,357.8858 421.05697,366.28488 419.05278,376.49734 C 417.71649,382.98766 417.19152,388.85748 417.47788,394.10681 C 417.76421,399.35635 419.38674,403.65128 422.34554,406.99176 C 425.30427,410.3324 430.12422,412.00273 436.80539,412.00265"
       id="path3678"
       sodipodi:nodetypes="ccccsccccccccsscccccsssccccccccsscssssssssccccsssccccsssccssssccsssscccsccccsscssssscssssssssccccssscssccsssccsccccsssccscccsscccssscssc" />
    <path
       style="font-size:40px;font-style:normal;font-weight:normal;fill:#1752e7;fill-opacity:1;stroke:none;stroke-width:1px;stroke-linecap:butt;stroke-linejoin:miter;stroke-opacity:1;font-family:Bitstream Vera Sans"
       d="M 653.91398,350.39024 C 643.65187,341.3009 630.4576,336.90282 613.74491,336.90282 C 585.01089,336.90282 563.60685,350.97667 563.60685,370.03496 C 563.60685,379.12431 568.88462,387.92046 577.09427,393.19815 C 585.30404,398.18265 593.51385,400.23507 615.21096,402.58073 C 631.33722,404.33995 639.2538,406.39238 646.87706,410.49726 C 654.79359,414.89533 659.77809,422.22545 659.77809,428.96918 C 659.77809,444.50902 640.42656,455.94401 614.62453,455.94401 C 589.70215,455.94401 569.47096,445.09544 569.47096,431.60802 L 569.47096,429.55556 C 569.47096,425.74391 567.12531,423.10506 563.60685,423.10506 C 559.502,423.10506 557.44954,425.74391 557.44954,431.0216 L 557.44954,455.35763 C 557.44954,460.63533 559.502,463.27417 563.60685,463.27417 C 567.41855,463.27417 569.47096,460.63533 569.47096,455.35763 L 569.47096,452.13236 C 581.78558,462.98093 596.44588,467.96544 615.50415,467.96544 C 648.63629,467.96544 672.97232,451.54589 672.97232,429.26237 C 672.97232,419.00022 667.40139,409.03122 658.31205,402.87391 C 648.92957,396.71661 638.0809,393.49138 620.19541,391.43892 C 594.39347,388.80007 592.63415,388.21369 586.18365,384.1088 C 580.02639,380.59034 576.80108,375.60589 576.80108,370.91458 C 576.80108,358.30678 593.22061,348.9242 614.91772,348.9242 C 637.20129,348.9242 652.44798,357.42716 653.91398,370.62138 C 654.5004,375.31266 656.55282,377.36511 660.07128,377.36511 C 663.88298,377.36511 665.9354,374.72628 665.9354,369.44858 L 665.9354,349.21743 C 665.9354,343.64651 663.88298,341.00766 660.07128,341.00766 C 656.25963,341.00766 653.91398,344.23294 653.91398,349.21743 L 653.91398,350.39024 M 742.93382,341.00766 L 742.93382,306.11629 C 742.93382,300.54541 741.17459,298.19975 737.0697,298.19975 C 732.96482,298.19975 730.9124,300.8386 730.9124,306.11629 L 730.9124,341.00766 L 709.21521,341.00766 C 703.64433,341.00766 701.00549,343.06012 701.00549,346.87178 C 701.00549,350.97667 703.64433,353.02908 709.21521,353.02908 L 730.9124,353.02908 L 730.9124,431.90121 C 730.9124,453.89151 734.13767,467.96544 761.69893,467.96544 C 786.62135,467.96544 796.96378,461.03493 796.96378,452.53201 C 796.96378,449.59997 794.32493,446.66789 791.39289,446.66789 C 789.92686,446.66789 789.04723,446.96112 786.70163,448.42712 C 775.26663,455.17086 777.532,455.94401 761.1125,455.94401 C 740.88135,455.94401 742.93382,446.26825 742.93382,431.31479 L 742.93382,353.02908 L 792.77865,353.02908 C 798.05634,353.02908 800.69519,350.97667 800.69519,346.87178 C 800.69519,343.06012 798.05634,341.00766 792.77865,341.00766 L 742.93382,341.00766 M 937.50733,336.90282 C 900.27037,336.90282 870.6566,366.22331 870.6566,402.28754 C 870.6566,438.93805 900.27037,467.96544 937.50733,467.96544 C 974.45115,467.96544 1004.358,438.93805 1004.358,403.16715 C 1004.358,365.93012 975.03758,336.90282 937.50733,336.90282 M 937.50733,348.9242 C 968.29387,348.9242 992.3366,372.38062 992.3366,403.16715 C 992.3366,432.19436 967.70744,455.94401 937.50733,455.94401 C 907.0141,455.94401 882.67798,432.19436 882.67798,402.28754 C 882.67798,372.67381 907.0141,348.9242 937.50733,348.9242 M 1098.0691,341.00766 L 1078.7177,341.00766 C 1073.7332,341.00766 1070.8011,343.35331 1070.8011,346.87178 C 1070.8011,350.68343 1073.7332,353.02908 1078.7177,353.02908 L 1086.0477,353.02908 L 1086.0477,451.25275 L 1072.5603,451.25275 C 1067.5758,451.25275 1064.6438,453.5984 1064.6438,457.11687 C 1064.6438,460.92852 1067.5758,463.27417 1072.5603,463.27417 L 1121.2323,463.27417 C 1126.2168,463.27417 1129.1489,460.92852 1129.1489,457.41005 C 1129.1489,453.5984 1126.2168,451.25275 1121.2323,451.25275 L 1098.0691,451.25275 L 1098.0691,386.45446 C 1130.3216,356.84073 1140.5839,350.09704 1153.7781,350.09704 C 1160.2286,350.09704 1166.0927,353.32227 1173.1296,360.066 C 1175.182,362.11843 1175.7685,362.41166 1177.8209,362.41166 C 1181.3394,362.41166 1183.9783,359.77281 1183.9783,356.25435 C 1183.9783,353.6155 1182.219,351.26986 1177.2345,347.16497 C 1169.6111,340.71447 1163.1606,338.07563 1154.6577,338.07563 C 1139.7043,338.07563 1125.3372,346.28535 1098.0691,370.91458 L 1098.0691,341.00766 M 1338.969,404.92638 C 1338.969,391.43892 1338.0894,385.86804 1333.9845,376.19227 C 1323.4292,351.85628 1299.9728,336.90282 1271.8251,336.90282 C 1234.295,336.90282 1204.9744,364.17089 1204.9744,399.64869 C 1204.9744,437.76524 1236.3474,467.96544 1275.93,467.96544 C 1302.6117,467.96544 1337.7962,454.18478 1337.7962,443.92264 C 1337.7962,440.69737 1335.1573,438.05852 1332.2253,438.05852 C 1330.7593,438.05852 1329.5865,438.64494 1327.5341,440.11094 C 1315.8059,449.49352 1294.4019,455.94401 1276.2232,455.94401 C 1244.5572,455.94401 1221.1007,435.71282 1216.9958,404.92638 L 1338.969,404.92638 M 1216.9958,392.90496 C 1222.2735,365.93012 1243.3843,348.9242 1271.8251,348.9242 C 1300.2659,348.9242 1321.9631,366.22331 1326.6544,392.90496 L 1216.9958,392.90496"
       id="path3680"
       sodipodi:nodetypes="csscscssccsccsccsscccsscsccsccccscccscccssscscccscccsssccssscccsccccsccscccscsscsccccssssscscccscc" />
    <path
       style="fill:#228421;fill-rule:evenodd;stroke:none;stroke-width:1px;stroke-linecap:butt;stroke-linejoin:miter;stroke-opacity:1"
       d="M 918.98725,309.6656 L 839.27215,355.47888 L 713.74377,701.82726 L 913.48965,778.79354 L 1042.6831,429.69639 L 1013.3626,345.39994 L 918.98725,309.6656 z"
       id="path3682" />
    <path
       sodipodi:type="arc"
       style="fill:#ffffff;fill-opacity:1;stroke:none;stroke-width:1.11614168;stroke-miterlimit:4;stroke-dasharray:none;stroke-opacity:1"
       id="path3684"
       sodipodi:cx="245"
       sodipodi:cy="195.98718"
       sodipodi:rx="8.375"
       sodipodi:ry="8.375"
       d="M 253.375,195.98718 A 8.375,8.375 0 1 1 236.625,195.98718 A 8.375,8.375 0 1 1 253.375,195.98718 z"
       transform="matrix(5.3187411,0,0,5.3187411,-365.43262,-639.28031)" />
  </g>
</svg>
